<mxfile host="app.diagrams.net" modified="2022-11-28T13:58:05.355Z" agent="5.0 (Macintosh; Intel Mac OS X 10_15_7) AppleWebKit/605.1.15 (KHTML, like Gecko) Version/15.5 Safari/605.1.15" etag="RPdWYVehmdOB7hL4O7nf" version="20.6.0" type="github">
  <diagram id="C5RBs43oDa-KdzZeNtuy" name="Page-1">
    <mxGraphModel dx="2066" dy="1202" grid="1" gridSize="10" guides="1" tooltips="1" connect="1" arrows="1" fold="1" page="1" pageScale="1" pageWidth="827" pageHeight="1169" math="0" shadow="0">
      <root>
        <mxCell id="WIyWlLk6GJQsqaUBKTNV-0" />
        <mxCell id="WIyWlLk6GJQsqaUBKTNV-1" parent="WIyWlLk6GJQsqaUBKTNV-0" />
        <mxCell id="WIyWlLk6GJQsqaUBKTNV-3" value="&lt;div style=&quot;text-align: start;&quot;&gt;MySQL/PostgreSQl&lt;/div&gt;" style="rounded=1;whiteSpace=wrap;html=1;fontSize=12;glass=0;strokeWidth=1;shadow=0;" parent="WIyWlLk6GJQsqaUBKTNV-1" vertex="1">
          <mxGeometry x="299" y="200" width="190" height="40" as="geometry" />
        </mxCell>
        <mxCell id="WIyWlLk6GJQsqaUBKTNV-7" value="Prisma JS (OMR)" style="rounded=1;whiteSpace=wrap;html=1;fontSize=12;glass=0;strokeWidth=1;shadow=0;" parent="WIyWlLk6GJQsqaUBKTNV-1" vertex="1">
          <mxGeometry x="334" y="320" width="120" height="40" as="geometry" />
        </mxCell>
        <mxCell id="YjCvzoe_hoBIYKLKPIZ7-22" value="" style="edgeStyle=orthogonalEdgeStyle;rounded=0;orthogonalLoop=1;jettySize=auto;html=1;fontColor=#000000;" edge="1" parent="WIyWlLk6GJQsqaUBKTNV-1" target="WIyWlLk6GJQsqaUBKTNV-3">
          <mxGeometry relative="1" as="geometry">
            <mxPoint x="559" y="220" as="sourcePoint" />
          </mxGeometry>
        </mxCell>
        <mxCell id="YjCvzoe_hoBIYKLKPIZ7-1" value="DataBase" style="ellipse;whiteSpace=wrap;html=1;fontColor=#000000;" vertex="1" parent="WIyWlLk6GJQsqaUBKTNV-1">
          <mxGeometry x="549" y="180" width="120" height="80" as="geometry" />
        </mxCell>
        <mxCell id="YjCvzoe_hoBIYKLKPIZ7-2" value="" style="endArrow=classic;startArrow=classic;html=1;rounded=0;fontColor=#000000;entryX=0.5;entryY=1;entryDx=0;entryDy=0;" edge="1" parent="WIyWlLk6GJQsqaUBKTNV-1" source="WIyWlLk6GJQsqaUBKTNV-7" target="WIyWlLk6GJQsqaUBKTNV-3">
          <mxGeometry width="50" height="50" relative="1" as="geometry">
            <mxPoint x="319" y="290" as="sourcePoint" />
            <mxPoint x="369" y="240" as="targetPoint" />
          </mxGeometry>
        </mxCell>
        <mxCell id="YjCvzoe_hoBIYKLKPIZ7-3" value="Express Js/ Nest js" style="rounded=1;whiteSpace=wrap;html=1;fontColor=#000000;" vertex="1" parent="WIyWlLk6GJQsqaUBKTNV-1">
          <mxGeometry x="334" y="440" width="120" height="60" as="geometry" />
        </mxCell>
        <mxCell id="YjCvzoe_hoBIYKLKPIZ7-4" value="" style="endArrow=classic;startArrow=classic;html=1;rounded=0;fontColor=#000000;entryX=0.5;entryY=1;entryDx=0;entryDy=0;exitX=0.5;exitY=0;exitDx=0;exitDy=0;" edge="1" parent="WIyWlLk6GJQsqaUBKTNV-1" source="YjCvzoe_hoBIYKLKPIZ7-3" target="WIyWlLk6GJQsqaUBKTNV-7">
          <mxGeometry width="50" height="50" relative="1" as="geometry">
            <mxPoint x="509" y="720" as="sourcePoint" />
            <mxPoint x="559" y="670" as="targetPoint" />
            <Array as="points" />
          </mxGeometry>
        </mxCell>
        <mxCell id="YjCvzoe_hoBIYKLKPIZ7-5" value="API" style="ellipse;whiteSpace=wrap;html=1;fontColor=#000000;" vertex="1" parent="WIyWlLk6GJQsqaUBKTNV-1">
          <mxGeometry x="599" y="430" width="120" height="80" as="geometry" />
        </mxCell>
        <mxCell id="YjCvzoe_hoBIYKLKPIZ7-7" value="" style="endArrow=classic;startArrow=classic;html=1;rounded=0;fontColor=#000000;entryX=0.5;entryY=1;entryDx=0;entryDy=0;" edge="1" parent="WIyWlLk6GJQsqaUBKTNV-1" target="YjCvzoe_hoBIYKLKPIZ7-3">
          <mxGeometry width="50" height="50" relative="1" as="geometry">
            <mxPoint x="339" y="590" as="sourcePoint" />
            <mxPoint x="389" y="540" as="targetPoint" />
          </mxGeometry>
        </mxCell>
        <mxCell id="YjCvzoe_hoBIYKLKPIZ7-8" value="" style="endArrow=classic;startArrow=classic;html=1;rounded=0;fontColor=#000000;entryX=0.5;entryY=1;entryDx=0;entryDy=0;" edge="1" parent="WIyWlLk6GJQsqaUBKTNV-1" target="YjCvzoe_hoBIYKLKPIZ7-3">
          <mxGeometry width="50" height="50" relative="1" as="geometry">
            <mxPoint x="459" y="590" as="sourcePoint" />
            <mxPoint x="559" y="670" as="targetPoint" />
          </mxGeometry>
        </mxCell>
        <mxCell id="YjCvzoe_hoBIYKLKPIZ7-9" value="React Js" style="rounded=1;whiteSpace=wrap;html=1;fontColor=#000000;" vertex="1" parent="WIyWlLk6GJQsqaUBKTNV-1">
          <mxGeometry x="269" y="590" width="120" height="60" as="geometry" />
        </mxCell>
        <mxCell id="YjCvzoe_hoBIYKLKPIZ7-10" value="Next Js" style="rounded=1;whiteSpace=wrap;html=1;fontColor=#000000;" vertex="1" parent="WIyWlLk6GJQsqaUBKTNV-1">
          <mxGeometry x="429" y="590" width="120" height="60" as="geometry" />
        </mxCell>
        <mxCell id="YjCvzoe_hoBIYKLKPIZ7-11" value="" style="endArrow=classic;startArrow=classic;html=1;rounded=0;fontColor=#000000;entryX=0.5;entryY=1;entryDx=0;entryDy=0;exitX=0.5;exitY=0;exitDx=0;exitDy=0;" edge="1" parent="WIyWlLk6GJQsqaUBKTNV-1" source="YjCvzoe_hoBIYKLKPIZ7-13" target="YjCvzoe_hoBIYKLKPIZ7-9">
          <mxGeometry width="50" height="50" relative="1" as="geometry">
            <mxPoint x="379" y="740" as="sourcePoint" />
            <mxPoint x="349" y="670" as="targetPoint" />
          </mxGeometry>
        </mxCell>
        <mxCell id="YjCvzoe_hoBIYKLKPIZ7-12" value="" style="endArrow=classic;startArrow=classic;html=1;rounded=0;fontColor=#000000;entryX=0.5;entryY=1;entryDx=0;entryDy=0;" edge="1" parent="WIyWlLk6GJQsqaUBKTNV-1" target="YjCvzoe_hoBIYKLKPIZ7-10">
          <mxGeometry width="50" height="50" relative="1" as="geometry">
            <mxPoint x="419" y="740" as="sourcePoint" />
            <mxPoint x="479" y="690" as="targetPoint" />
          </mxGeometry>
        </mxCell>
        <mxCell id="YjCvzoe_hoBIYKLKPIZ7-13" value="SASS/SCSS" style="rounded=1;whiteSpace=wrap;html=1;fontColor=#000000;" vertex="1" parent="WIyWlLk6GJQsqaUBKTNV-1">
          <mxGeometry x="349" y="740" width="120" height="60" as="geometry" />
        </mxCell>
        <mxCell id="YjCvzoe_hoBIYKLKPIZ7-14" value="" style="endArrow=classic;startArrow=classic;html=1;rounded=0;fontColor=#000000;exitX=1;exitY=0.5;exitDx=0;exitDy=0;" edge="1" parent="WIyWlLk6GJQsqaUBKTNV-1" source="YjCvzoe_hoBIYKLKPIZ7-13">
          <mxGeometry width="50" height="50" relative="1" as="geometry">
            <mxPoint x="519" y="800" as="sourcePoint" />
            <mxPoint x="589" y="770" as="targetPoint" />
          </mxGeometry>
        </mxCell>
        <mxCell id="YjCvzoe_hoBIYKLKPIZ7-15" value="Styling" style="rounded=1;whiteSpace=wrap;html=1;fontColor=#000000;" vertex="1" parent="WIyWlLk6GJQsqaUBKTNV-1">
          <mxGeometry x="579" y="740" width="120" height="60" as="geometry" />
        </mxCell>
        <mxCell id="YjCvzoe_hoBIYKLKPIZ7-21" value="" style="endArrow=classic;html=1;rounded=0;fontColor=#000000;entryX=1;entryY=0.5;entryDx=0;entryDy=0;exitX=0;exitY=0.5;exitDx=0;exitDy=0;" edge="1" parent="WIyWlLk6GJQsqaUBKTNV-1" source="YjCvzoe_hoBIYKLKPIZ7-5" target="YjCvzoe_hoBIYKLKPIZ7-3">
          <mxGeometry width="50" height="50" relative="1" as="geometry">
            <mxPoint x="509" y="720" as="sourcePoint" />
            <mxPoint x="559" y="670" as="targetPoint" />
          </mxGeometry>
        </mxCell>
        <mxCell id="YjCvzoe_hoBIYKLKPIZ7-25" value="BACKEND" style="rounded=1;whiteSpace=wrap;html=1;fontColor=#000000;" vertex="1" parent="WIyWlLk6GJQsqaUBKTNV-1">
          <mxGeometry x="109" y="330" width="120" height="90" as="geometry" />
        </mxCell>
        <mxCell id="YjCvzoe_hoBIYKLKPIZ7-26" value="" style="endArrow=classic;html=1;rounded=0;fontColor=#000000;entryX=1;entryY=0.5;entryDx=0;entryDy=0;exitX=0;exitY=0.5;exitDx=0;exitDy=0;" edge="1" parent="WIyWlLk6GJQsqaUBKTNV-1" source="YjCvzoe_hoBIYKLKPIZ7-3" target="YjCvzoe_hoBIYKLKPIZ7-25">
          <mxGeometry width="50" height="50" relative="1" as="geometry">
            <mxPoint x="509" y="720" as="sourcePoint" />
            <mxPoint x="559" y="670" as="targetPoint" />
            <Array as="points">
              <mxPoint x="289" y="430" />
            </Array>
          </mxGeometry>
        </mxCell>
        <mxCell id="YjCvzoe_hoBIYKLKPIZ7-27" value="" style="endArrow=classic;html=1;rounded=0;fontColor=#000000;exitX=0;exitY=0.5;exitDx=0;exitDy=0;" edge="1" parent="WIyWlLk6GJQsqaUBKTNV-1" source="WIyWlLk6GJQsqaUBKTNV-7">
          <mxGeometry width="50" height="50" relative="1" as="geometry">
            <mxPoint x="269" y="320" as="sourcePoint" />
            <mxPoint x="229" y="375" as="targetPoint" />
          </mxGeometry>
        </mxCell>
        <mxCell id="YjCvzoe_hoBIYKLKPIZ7-28" value="" style="endArrow=classic;html=1;rounded=0;fontColor=#000000;exitX=0;exitY=0.5;exitDx=0;exitDy=0;" edge="1" parent="WIyWlLk6GJQsqaUBKTNV-1" source="WIyWlLk6GJQsqaUBKTNV-3">
          <mxGeometry width="50" height="50" relative="1" as="geometry">
            <mxPoint x="219" y="280" as="sourcePoint" />
            <mxPoint x="229" y="380" as="targetPoint" />
          </mxGeometry>
        </mxCell>
        <mxCell id="YjCvzoe_hoBIYKLKPIZ7-29" value="FRONTEND" style="rounded=1;whiteSpace=wrap;html=1;fontColor=#000000;" vertex="1" parent="WIyWlLk6GJQsqaUBKTNV-1">
          <mxGeometry x="109" y="570" width="120" height="100" as="geometry" />
        </mxCell>
        <mxCell id="YjCvzoe_hoBIYKLKPIZ7-31" value="" style="endArrow=classic;html=1;rounded=0;fontColor=#000000;entryX=1;entryY=0.5;entryDx=0;entryDy=0;exitX=0;exitY=0.5;exitDx=0;exitDy=0;" edge="1" parent="WIyWlLk6GJQsqaUBKTNV-1" source="YjCvzoe_hoBIYKLKPIZ7-13" target="YjCvzoe_hoBIYKLKPIZ7-29">
          <mxGeometry width="50" height="50" relative="1" as="geometry">
            <mxPoint x="269" y="790" as="sourcePoint" />
            <mxPoint x="319" y="740" as="targetPoint" />
          </mxGeometry>
        </mxCell>
        <mxCell id="YjCvzoe_hoBIYKLKPIZ7-33" value="" style="endArrow=classic;html=1;rounded=0;fontColor=#000000;exitX=0;exitY=0.5;exitDx=0;exitDy=0;entryX=1;entryY=0.5;entryDx=0;entryDy=0;" edge="1" parent="WIyWlLk6GJQsqaUBKTNV-1" source="YjCvzoe_hoBIYKLKPIZ7-9" target="YjCvzoe_hoBIYKLKPIZ7-29">
          <mxGeometry width="50" height="50" relative="1" as="geometry">
            <mxPoint x="239" y="600" as="sourcePoint" />
            <mxPoint x="289" y="550" as="targetPoint" />
          </mxGeometry>
        </mxCell>
        <mxCell id="YjCvzoe_hoBIYKLKPIZ7-35" value="" style="endArrow=classic;startArrow=classic;html=1;rounded=0;fontColor=#000000;entryX=0;entryY=0.5;entryDx=0;entryDy=0;" edge="1" parent="WIyWlLk6GJQsqaUBKTNV-1" source="YjCvzoe_hoBIYKLKPIZ7-9" target="YjCvzoe_hoBIYKLKPIZ7-10">
          <mxGeometry width="50" height="50" relative="1" as="geometry">
            <mxPoint x="389" y="670" as="sourcePoint" />
            <mxPoint x="419" y="620" as="targetPoint" />
          </mxGeometry>
        </mxCell>
        <mxCell id="YjCvzoe_hoBIYKLKPIZ7-36" value="WebStore Code/Data Structure" style="rounded=1;whiteSpace=wrap;html=1;fontColor=#000000;" vertex="1" parent="WIyWlLk6GJQsqaUBKTNV-1">
          <mxGeometry x="234" y="50" width="360" height="70" as="geometry" />
        </mxCell>
        <mxCell id="YjCvzoe_hoBIYKLKPIZ7-43" value="GitKraken(.git)" style="rounded=1;whiteSpace=wrap;html=1;fontColor=#000000;" vertex="1" parent="WIyWlLk6GJQsqaUBKTNV-1">
          <mxGeometry y="460" width="120" height="60" as="geometry" />
        </mxCell>
        <mxCell id="YjCvzoe_hoBIYKLKPIZ7-44" value="" style="endArrow=classic;html=1;rounded=0;fontColor=#000000;entryX=0;entryY=0.5;entryDx=0;entryDy=0;exitX=0.5;exitY=0;exitDx=0;exitDy=0;" edge="1" parent="WIyWlLk6GJQsqaUBKTNV-1" source="YjCvzoe_hoBIYKLKPIZ7-43" target="YjCvzoe_hoBIYKLKPIZ7-25">
          <mxGeometry width="50" height="50" relative="1" as="geometry">
            <mxPoint x="40" y="480" as="sourcePoint" />
            <mxPoint x="90" y="430" as="targetPoint" />
          </mxGeometry>
        </mxCell>
        <mxCell id="YjCvzoe_hoBIYKLKPIZ7-45" value="" style="endArrow=classic;html=1;rounded=0;fontColor=#000000;entryX=0;entryY=0.5;entryDx=0;entryDy=0;exitX=0.5;exitY=1;exitDx=0;exitDy=0;" edge="1" parent="WIyWlLk6GJQsqaUBKTNV-1" source="YjCvzoe_hoBIYKLKPIZ7-43" target="YjCvzoe_hoBIYKLKPIZ7-29">
          <mxGeometry width="50" height="50" relative="1" as="geometry">
            <mxPoint x="40" y="610" as="sourcePoint" />
            <mxPoint x="90" y="560" as="targetPoint" />
          </mxGeometry>
        </mxCell>
      </root>
    </mxGraphModel>
  </diagram>
</mxfile>
